# xmcd
#
# Track frame offsets:
#	150
#	13914
#	28465
#	42014
#	57763
#	75766
#	92302
#	115330
#	131815
#	146271
#	162318
#	178714
#	193374
#	207473
#	221559
#
# Disc length: 3220 seconds
#
# Revision: 1
# Processed by: cddbd v1.5.2PL0 Copyright (c) Steve Scherf et al.
# Submitted via: audiograbber 1.83.01
#
DISCID=d20c920f
DTITLE=COUNTRY TIME LINE - CB80156 VOL 2
DYEAR=1994
DGENRE=KARAOKE
TTITLE0=JOHN MICHAEL MONTGOMERY - BE MY BABY TONIGHT
TTITLE1=TRACY BYRD - WATERMELON CRAWL
TTITLE2=JOE DIFFIE - THIRD ROCK FROM THE SUN
TTITLE3=REBA MCENTIRE - WHY HAVEN'T I HEARD FROM YOU
TTITLE4=ALAN JACKSON - LIVIN' ON LOVE
TTITLE5=JOE DIFFIE - PICKUP MAN
TTITLE6=PATTY LOVELESS - HOW CAN I HELP YOU SAY GOODBYE
TTITLE7=BROOKS and DUNN - ROCK MY WORLD(LITTLE COUNTRY GIRL)
TTITLE8=COLLIN RAYE - THAT'S MY STORY
TTITLE9=MARTINA MCBRIDE - INDEPENDENCE DAY
TTITLE10=KENNY CHESNEY - THE TIME MAN
TTITLE11=DAVID BALL - THINKIN' PROBLEM
TTITLE12=VINCE GILL - WHAT THE COWGIRL DO
TTITLE13=PAM TILLIS - MI VIDA LOCA (MY CRAZY LIFE)
TTITLE14=ALAN JACKSON - GONE COUNTRY
EXTD=
EXTT0=
EXTT1=
EXTT2=
EXTT3=
EXTT4=
EXTT5=
EXTT6=
EXTT7=
EXTT8=
EXTT9=
EXTT10=
EXTT11=
EXTT12=
EXTT13=
EXTT14=
PLAYORDER=
